<svg id="visual" viewBox="0 0 960 300" width="960" height="300" xmlns="http://www.w3.org/2000/svg" xmlns:xlink="http://www.w3.org/1999/xlink" version="1.1"><rect x="0" y="0" width="960" height="300" fill="#151515"></rect><path d="M0 210L11.5 210C23 210 46 210 68.8 209.8C91.7 209.7 114.3 209.3 137.2 210.3C160 211.3 183 213.7 205.8 200.8C228.7 188 251.3 160 274.2 158.2C297 156.3 320 180.7 342.8 182.8C365.7 185 388.3 165 411.2 167.7C434 170.3 457 195.7 480 200.2C503 204.7 526 188.3 548.8 178.2C571.7 168 594.3 164 617.2 172.8C640 181.7 663 203.3 685.8 206.8C708.7 210.3 731.3 195.7 754.2 185.8C777 176 800 171 822.8 169.8C845.7 168.7 868.3 171.3 891.2 179.7C914 188 937 202 948.5 209L960 216L960 0L948.5 0C937 0 914 0 891.2 0C868.3 0 845.7 0 822.8 0C800 0 777 0 754.2 0C731.3 0 708.7 0 685.8 0C663 0 640 0 617.2 0C594.3 0 571.7 0 548.8 0C526 0 503 0 480 0C457 0 434 0 411.2 0C388.3 0 365.7 0 342.8 0C320 0 297 0 274.2 0C251.3 0 228.7 0 205.8 0C183 0 160 0 137.2 0C114.3 0 91.7 0 68.8 0C46 0 23 0 11.5 0L0 0Z" fill="#a63d40"></path><path d="M0 104L11.5 112.8C23 121.7 46 139.3 68.8 146.2C91.7 153 114.3 149 137.2 141C160 133 183 121 205.8 118.5C228.7 116 251.3 123 274.2 124.5C297 126 320 122 342.8 123.2C365.7 124.3 388.3 130.7 411.2 132.7C434 134.7 457 132.3 480 134.7C503 137 526 144 548.8 142C571.7 140 594.3 129 617.2 120.7C640 112.3 663 106.7 685.8 115.2C708.7 123.7 731.3 146.3 754.2 147.8C777 149.3 800 129.7 822.8 129.2C845.7 128.7 868.3 147.3 891.2 145.7C914 144 937 122 948.5 111L960 100L960 0L948.5 0C937 0 914 0 891.2 0C868.3 0 845.7 0 822.8 0C800 0 777 0 754.2 0C731.3 0 708.7 0 685.8 0C663 0 640 0 617.2 0C594.3 0 571.7 0 548.8 0C526 0 503 0 480 0C457 0 434 0 411.2 0C388.3 0 365.7 0 342.8 0C320 0 297 0 274.2 0C251.3 0 228.7 0 205.8 0C183 0 160 0 137.2 0C114.3 0 91.7 0 68.8 0C46 0 23 0 11.5 0L0 0Z" fill="#d28383"></path><path d="M0 47L11.5 53.5C23 60 46 73 68.8 79.5C91.7 86 114.3 86 137.2 87.5C160 89 183 92 205.8 94.8C228.7 97.7 251.3 100.3 274.2 101.3C297 102.3 320 101.7 342.8 97.5C365.7 93.3 388.3 85.7 411.2 76.2C434 66.7 457 55.3 480 49.5C503 43.7 526 43.3 548.8 42.5C571.7 41.7 594.3 40.3 617.2 40.8C640 41.3 663 43.7 685.8 53C708.7 62.3 731.3 78.7 754.2 88C777 97.3 800 99.7 822.8 101.7C845.7 103.7 868.3 105.3 891.2 105.5C914 105.7 937 104.3 948.5 103.7L960 103L960 0L948.5 0C937 0 914 0 891.2 0C868.3 0 845.7 0 822.8 0C800 0 777 0 754.2 0C731.3 0 708.7 0 685.8 0C663 0 640 0 617.2 0C594.3 0 571.7 0 548.8 0C526 0 503 0 480 0C457 0 434 0 411.2 0C388.3 0 365.7 0 342.8 0C320 0 297 0 274.2 0C251.3 0 228.7 0 205.8 0C183 0 160 0 137.2 0C114.3 0 91.7 0 68.8 0C46 0 23 0 11.5 0L0 0Z" fill="#f7caca"></path></svg>