<svg id="visual" viewBox="0 0 960 300" width="960" height="300" xmlns="http://www.w3.org/2000/svg" xmlns:xlink="http://www.w3.org/1999/xlink" version="1.1"><path d="M0 25L53 37L107 19L160 16L213 40L267 43L320 19L373 40L427 34L480 28L533 16L587 40L640 34L693 19L747 22L800 43L853 28L907 28L960 34L960 0L907 0L853 0L800 0L747 0L693 0L640 0L587 0L533 0L480 0L427 0L373 0L320 0L267 0L213 0L160 0L107 0L53 0L0 0Z" fill="#000000"></path><path d="M0 76L53 94L107 70L160 94L213 103L267 85L320 73L373 79L427 103L480 70L533 160L587 85L640 79L693 76L747 70L800 157L853 169L907 175L960 91L960 32L907 26L853 26L800 41L747 20L693 17L640 32L587 38L533 14L480 26L427 32L373 38L320 17L267 41L213 38L160 14L107 17L53 35L0 23Z" fill="#412122"></path><path d="M0 103L53 166L107 130L160 139L213 157L267 142L320 130L373 145L427 172L480 148L533 193L587 148L640 142L693 118L747 124L800 205L853 214L907 208L960 139L960 89L907 173L853 167L800 155L747 68L693 74L640 77L587 83L533 158L480 68L427 101L373 77L320 71L267 83L213 101L160 92L107 68L53 92L0 74Z" fill="#6b4747"></path><path d="M0 238L53 247L107 220L160 229L213 223L267 214L320 253L373 226L427 244L480 253L533 253L587 253L640 229L693 247L747 226L800 244L853 259L907 262L960 247L960 137L907 206L853 212L800 203L747 122L693 116L640 140L587 146L533 191L480 146L427 170L373 143L320 128L267 140L213 155L160 137L107 128L53 164L0 101Z" fill="#987070"></path><path d="M0 277L53 277L107 259L160 265L213 262L267 256L320 274L373 280L427 268L480 277L533 277L587 286L640 262L693 286L747 253L800 268L853 280L907 286L960 271L960 245L907 260L853 257L800 242L747 224L693 245L640 227L587 251L533 251L480 251L427 242L373 224L320 251L267 212L213 221L160 227L107 218L53 245L0 236Z" fill="#c69c9c"></path><path d="M0 301L53 301L107 301L160 301L213 301L267 301L320 301L373 301L427 301L480 301L533 301L587 301L640 301L693 301L747 301L800 301L853 301L907 301L960 301L960 269L907 284L853 278L800 266L747 251L693 284L640 260L587 284L533 275L480 275L427 266L373 278L320 272L267 254L213 260L160 263L107 257L53 275L0 275Z" fill="#f7caca"></path></svg>