<svg id="visual" viewBox="0 0 960 300" width="960" height="300" xmlns="http://www.w3.org/2000/svg" xmlns:xlink="http://www.w3.org/1999/xlink" version="1.1"><rect x="0" y="0" width="960" height="300" fill="#151515"></rect><path d="M0 140L22.8 151.8C45.7 163.7 91.3 187.3 137 200.7C182.7 214 228.3 217 274 205.5C319.7 194 365.3 168 411.2 158.3C457 148.7 503 155.3 548.8 166C594.7 176.7 640.3 191.3 686 190.7C731.7 190 777.3 174 823 170.8C868.7 167.7 914.3 177.3 937.2 182.2L960 187L960 0L937.2 0C914.3 0 868.7 0 823 0C777.3 0 731.7 0 686 0C640.3 0 594.7 0 548.8 0C503 0 457 0 411.2 0C365.3 0 319.7 0 274 0C228.3 0 182.7 0 137 0C91.3 0 45.7 0 22.8 0L0 0Z" fill="#e9b872"></path><path d="M0 134L22.8 129.5C45.7 125 91.3 116 137 122.7C182.7 129.3 228.3 151.7 274 153C319.7 154.3 365.3 134.7 411.2 128.3C457 122 503 129 548.8 131C594.7 133 640.3 130 686 137C731.7 144 777.3 161 823 167.5C868.7 174 914.3 170 937.2 168L960 166L960 0L937.2 0C914.3 0 868.7 0 823 0C777.3 0 731.7 0 686 0C640.3 0 594.7 0 548.8 0C503 0 457 0 411.2 0C365.3 0 319.7 0 274 0C228.3 0 182.7 0 137 0C91.3 0 45.7 0 22.8 0L0 0Z" fill="#dc995f"></path><path d="M0 115L22.8 117.8C45.7 120.7 91.3 126.3 137 131C182.7 135.7 228.3 139.3 274 134.3C319.7 129.3 365.3 115.7 411.2 115.3C457 115 503 128 548.8 134.7C594.7 141.3 640.3 141.7 686 137.7C731.7 133.7 777.3 125.3 823 119C868.7 112.7 914.3 108.3 937.2 106.2L960 104L960 0L937.2 0C914.3 0 868.7 0 823 0C777.3 0 731.7 0 686 0C640.3 0 594.7 0 548.8 0C503 0 457 0 411.2 0C365.3 0 319.7 0 274 0C228.3 0 182.7 0 137 0C91.3 0 45.7 0 22.8 0L0 0Z" fill="#cc7a51"></path><path d="M0 52L22.8 60.2C45.7 68.3 91.3 84.7 137 89.8C182.7 95 228.3 89 274 85.2C319.7 81.3 365.3 79.7 411.2 82.3C457 85 503 92 548.8 89.8C594.7 87.7 640.3 76.3 686 68.8C731.7 61.3 777.3 57.7 823 58C868.7 58.3 914.3 62.7 937.2 64.8L960 67L960 0L937.2 0C914.3 0 868.7 0 823 0C777.3 0 731.7 0 686 0C640.3 0 594.7 0 548.8 0C503 0 457 0 411.2 0C365.3 0 319.7 0 274 0C228.3 0 182.7 0 137 0C91.3 0 45.7 0 22.8 0L0 0Z" fill="#ba5c47"></path><path d="M0 43L22.8 42.8C45.7 42.7 91.3 42.3 137 40.5C182.7 38.7 228.3 35.3 274 38.8C319.7 42.3 365.3 52.7 411.2 57.5C457 62.3 503 61.7 548.8 60.2C594.7 58.7 640.3 56.3 686 50C731.7 43.7 777.3 33.3 823 31.3C868.7 29.3 914.3 35.7 937.2 38.8L960 42L960 0L937.2 0C914.3 0 868.7 0 823 0C777.3 0 731.7 0 686 0C640.3 0 594.7 0 548.8 0C503 0 457 0 411.2 0C365.3 0 319.7 0 274 0C228.3 0 182.7 0 137 0C91.3 0 45.7 0 22.8 0L0 0Z" fill="#a63d40"></path></svg>