<svg id="visual" viewBox="0 0 960 300" width="960" height="300" xmlns="http://www.w3.org/2000/svg" xmlns:xlink="http://www.w3.org/1999/xlink" version="1.1"><path d="M0 28L11.5 23.3C23 18.7 46 9.3 68.8 11.8C91.7 14.3 114.3 28.7 137.2 30.8C160 33 183 23 205.8 20.5C228.7 18 251.3 23 274.2 26C297 29 320 30 342.8 32.5C365.7 35 388.3 39 411.2 36.5C434 34 457 25 480 22.5C503 20 526 24 548.8 23C571.7 22 594.3 16 617.2 16.5C640 17 663 24 685.8 28C708.7 32 731.3 33 754.2 30C777 27 800 20 822.8 20C845.7 20 868.3 27 891.2 31C914 35 937 36 948.5 36.5L960 37L960 0L948.5 0C937 0 914 0 891.2 0C868.3 0 845.7 0 822.8 0C800 0 777 0 754.2 0C731.3 0 708.7 0 685.8 0C663 0 640 0 617.2 0C594.3 0 571.7 0 548.8 0C526 0 503 0 480 0C457 0 434 0 411.2 0C388.3 0 365.7 0 342.8 0C320 0 297 0 274.2 0C251.3 0 228.7 0 205.8 0C183 0 160 0 137.2 0C114.3 0 91.7 0 68.8 0C46 0 23 0 11.5 0L0 0Z" fill="#c49e85"></path><path d="M0 49L11.5 44C23 39 46 29 68.8 35C91.7 41 114.3 63 137.2 66.5C160 70 183 55 205.8 47C228.7 39 251.3 38 274.2 41C297 44 320 51 342.8 58.5C365.7 66 388.3 74 411.2 81C434 88 457 94 480 87C503 80 526 60 548.8 56C571.7 52 594.3 64 617.2 66.5C640 69 663 62 685.8 55C708.7 48 731.3 41 754.2 42C777 43 800 52 822.8 67C845.7 82 868.3 103 891.2 106.5C914 110 937 96 948.5 89L960 82L960 35L948.5 34.5C937 34 914 33 891.2 29C868.3 25 845.7 18 822.8 18C800 18 777 25 754.2 28C731.3 31 708.7 30 685.8 26C663 22 640 15 617.2 14.5C594.3 14 571.7 20 548.8 21C526 22 503 18 480 20.5C457 23 434 32 411.2 34.5C388.3 37 365.7 33 342.8 30.5C320 28 297 27 274.2 24C251.3 21 228.7 16 205.8 18.5C183 21 160 31 137.2 29.2C114.3 27.3 91.7 13.7 68.8 11.2C46 8.7 23 17.3 11.5 21.7L0 26Z" fill="#a58068"></path><path d="M0 172L11.5 159.5C23 147 46 122 68.8 125C91.7 128 114.3 159 137.2 151.5C160 144 183 98 205.8 84C228.7 70 251.3 88 274.2 104.5C297 121 320 136 342.8 137.5C365.7 139 388.3 127 411.2 134.5C434 142 457 169 480 173C503 177 526 158 548.8 139C571.7 120 594.3 101 617.2 96.5C640 92 663 102 685.8 97.5C708.7 93 731.3 74 754.2 85.5C777 97 800 139 822.8 160.5C845.7 182 868.3 183 891.2 183C914 183 937 182 948.5 181.5L960 181L960 80L948.5 87C937 94 914 108 891.2 104.5C868.3 101 845.7 80 822.8 65C800 50 777 41 754.2 40C731.3 39 708.7 46 685.8 53C663 60 640 67 617.2 64.5C594.3 62 571.7 50 548.8 54C526 58 503 78 480 85C457 92 434 86 411.2 79C388.3 72 365.7 64 342.8 56.5C320 49 297 42 274.2 39C251.3 36 228.7 37 205.8 45C183 53 160 68 137.2 64.5C114.3 61 91.7 39 68.8 33C46 27 23 37 11.5 42L0 47Z" fill="#86644d"></path><path d="M0 184L11.5 173.5C23 163 46 142 68.8 148.5C91.7 155 114.3 189 137.2 181C160 173 183 123 205.8 104C228.7 85 251.3 97 274.2 113C297 129 320 149 342.8 151.5C365.7 154 388.3 139 411.2 143.5C434 148 457 172 480 175.5C503 179 526 162 548.8 145C571.7 128 594.3 111 617.2 108.5C640 106 663 118 685.8 114C708.7 110 731.3 90 754.2 105.5C777 121 800 172 822.8 196C845.7 220 868.3 217 891.2 212.5C914 208 937 202 948.5 199L960 196L960 179L948.5 179.5C937 180 914 181 891.2 181C868.3 181 845.7 180 822.8 158.5C800 137 777 95 754.2 83.5C731.3 72 708.7 91 685.8 95.5C663 100 640 90 617.2 94.5C594.3 99 571.7 118 548.8 137C526 156 503 175 480 171C457 167 434 140 411.2 132.5C388.3 125 365.7 137 342.8 135.5C320 134 297 119 274.2 102.5C251.3 86 228.7 68 205.8 82C183 96 160 142 137.2 149.5C114.3 157 91.7 126 68.8 123C46 120 23 145 11.5 157.5L0 170Z" fill="#694933"></path><path d="M0 238L11.5 224.5C23 211 46 184 68.8 185.5C91.7 187 114.3 217 137.2 203C160 189 183 131 205.8 116.5C228.7 102 251.3 131 274.2 148.5C297 166 320 172 342.8 167C365.7 162 388.3 146 411.2 153C434 160 457 190 480 194.5C503 199 526 178 548.8 163C571.7 148 594.3 139 617.2 139.5C640 140 663 150 685.8 148.5C708.7 147 731.3 134 754.2 146C777 158 800 195 822.8 215C845.7 235 868.3 238 891.2 233C914 228 937 215 948.5 208.5L960 202L960 194L948.5 197C937 200 914 206 891.2 210.5C868.3 215 845.7 218 822.8 194C800 170 777 119 754.2 103.5C731.3 88 708.7 108 685.8 112C663 116 640 104 617.2 106.5C594.3 109 571.7 126 548.8 143C526 160 503 177 480 173.5C457 170 434 146 411.2 141.5C388.3 137 365.7 152 342.8 149.5C320 147 297 127 274.2 111C251.3 95 228.7 83 205.8 102C183 121 160 171 137.2 179C114.3 187 91.7 153 68.8 146.5C46 140 23 161 11.5 171.5L0 182Z" fill="#4c2f1b"></path><path d="M0 253L11.5 253C23 253 46 253 68.8 259C91.7 265 114.3 277 137.2 277.5C160 278 183 267 205.8 266C228.7 265 251.3 274 274.2 275.5C297 277 320 271 342.8 268C365.7 265 388.3 265 411.2 264C434 263 457 261 480 264C503 267 526 275 548.8 269C571.7 263 594.3 243 617.2 242C640 241 663 259 685.8 261.5C708.7 264 731.3 251 754.2 247C777 243 800 248 822.8 258C845.7 268 868.3 283 891.2 282C914 281 937 264 948.5 255.5L960 247L960 200L948.5 206.5C937 213 914 226 891.2 231C868.3 236 845.7 233 822.8 213C800 193 777 156 754.2 144C731.3 132 708.7 145 685.8 146.5C663 148 640 138 617.2 137.5C594.3 137 571.7 146 548.8 161C526 176 503 197 480 192.5C457 188 434 158 411.2 151C388.3 144 365.7 160 342.8 165C320 170 297 164 274.2 146.5C251.3 129 228.7 100 205.8 114.5C183 129 160 187 137.2 201C114.3 215 91.7 185 68.8 183.5C46 182 23 209 11.5 222.5L0 236Z" fill="#321800"></path><path d="M0 301L11.5 301C23 301 46 301 68.8 301C91.7 301 114.3 301 137.2 301C160 301 183 301 205.8 301C228.7 301 251.3 301 274.2 301C297 301 320 301 342.8 301C365.7 301 388.3 301 411.2 301C434 301 457 301 480 301C503 301 526 301 548.8 301C571.7 301 594.3 301 617.2 301C640 301 663 301 685.8 301C708.7 301 731.3 301 754.2 301C777 301 800 301 822.8 301C845.7 301 868.3 301 891.2 301C914 301 937 301 948.5 301L960 301L960 245L948.5 253.5C937 262 914 279 891.2 280C868.3 281 845.7 266 822.8 256C800 246 777 241 754.2 245C731.3 249 708.7 262 685.8 259.5C663 257 640 239 617.2 240C594.3 241 571.7 261 548.8 267C526 273 503 265 480 262C457 259 434 261 411.2 262C388.3 263 365.7 263 342.8 266C320 269 297 275 274.2 273.5C251.3 272 228.7 263 205.8 264C183 265 160 276 137.2 275.5C114.3 275 91.7 263 68.8 257C46 251 23 251 11.5 251L0 251Z" fill="#000000"></path></svg>