<svg id="visual" viewBox="0 0 960 300" width="960" height="300" xmlns="http://www.w3.org/2000/svg" xmlns:xlink="http://www.w3.org/1999/xlink" version="1.1"><path d="M0 118L42 118L42 109L83 109L83 91L125 91L125 82L167 82L167 103L209 103L209 103L250 103L250 58L292 58L292 94L334 94L334 133L376 133L376 97L417 97L417 58L459 58L459 61L501 61L501 94L543 94L543 100L584 100L584 97L626 97L626 103L668 103L668 88L710 88L710 70L751 70L751 64L793 64L793 112L835 112L835 58L877 58L877 70L918 70L918 82L960 82L960 97L960 0L960 0L918 0L918 0L877 0L877 0L835 0L835 0L793 0L793 0L751 0L751 0L710 0L710 0L668 0L668 0L626 0L626 0L584 0L584 0L543 0L543 0L501 0L501 0L459 0L459 0L417 0L417 0L376 0L376 0L334 0L334 0L292 0L292 0L250 0L250 0L209 0L209 0L167 0L167 0L125 0L125 0L83 0L83 0L42 0L42 0L0 0Z" fill="#151515"></path><path d="M0 139L42 139L42 142L83 142L83 121L125 121L125 124L167 124L167 133L209 133L209 145L250 145L250 106L292 106L292 139L334 139L334 169L376 169L376 127L417 127L417 85L459 85L459 82L501 82L501 142L543 142L543 130L584 130L584 142L626 142L626 151L668 151L668 118L710 118L710 100L751 100L751 109L793 109L793 154L835 154L835 88L877 88L877 118L918 118L918 112L960 112L960 145L960 95L960 80L918 80L918 68L877 68L877 56L835 56L835 110L793 110L793 62L751 62L751 68L710 68L710 86L668 86L668 101L626 101L626 95L584 95L584 98L543 98L543 92L501 92L501 59L459 59L459 56L417 56L417 95L376 95L376 131L334 131L334 92L292 92L292 56L250 56L250 101L209 101L209 101L167 101L167 80L125 80L125 89L83 89L83 107L42 107L42 116L0 116Z" fill="#3c332e"></path><path d="M0 223L42 223L42 220L83 220L83 181L125 181L125 187L167 187L167 220L209 220L209 193L250 193L250 187L292 187L292 229L334 229L334 229L376 229L376 202L417 202L417 205L459 205L459 178L501 178L501 220L543 220L543 232L584 232L584 220L626 220L626 220L668 220L668 226L710 226L710 229L751 229L751 232L793 232L793 208L835 208L835 205L877 205L877 211L918 211L918 235L960 235L960 244L960 143L960 110L918 110L918 116L877 116L877 86L835 86L835 152L793 152L793 107L751 107L751 98L710 98L710 116L668 116L668 149L626 149L626 140L584 140L584 128L543 128L543 140L501 140L501 80L459 80L459 83L417 83L417 125L376 125L376 167L334 167L334 137L292 137L292 104L250 104L250 143L209 143L209 131L167 131L167 122L125 122L125 119L83 119L83 140L42 140L42 137L0 137Z" fill="#665549"></path><path d="M0 268L42 268L42 244L83 244L83 241L125 241L125 232L167 232L167 271L209 271L209 235L250 235L250 232L292 232L292 271L334 271L334 253L376 253L376 232L417 232L417 235L459 235L459 235L501 235L501 247L543 247L543 265L584 265L584 265L626 265L626 247L668 247L668 262L710 262L710 268L751 268L751 262L793 262L793 253L835 253L835 262L877 262L877 262L918 262L918 262L960 262L960 268L960 242L960 233L918 233L918 209L877 209L877 203L835 203L835 206L793 206L793 230L751 230L751 227L710 227L710 224L668 224L668 218L626 218L626 218L584 218L584 230L543 230L543 218L501 218L501 176L459 176L459 203L417 203L417 200L376 200L376 227L334 227L334 227L292 227L292 185L250 185L250 191L209 191L209 218L167 218L167 185L125 185L125 179L83 179L83 218L42 218L42 221L0 221Z" fill="#947966"></path><path d="M0 301L42 301L42 301L83 301L83 301L125 301L125 301L167 301L167 301L209 301L209 301L250 301L250 301L292 301L292 301L334 301L334 301L376 301L376 301L417 301L417 301L459 301L459 301L501 301L501 301L543 301L543 301L584 301L584 301L626 301L626 301L668 301L668 301L710 301L710 301L751 301L751 301L793 301L793 301L835 301L835 301L877 301L877 301L918 301L918 301L960 301L960 301L960 266L960 260L918 260L918 260L877 260L877 260L835 260L835 251L793 251L793 260L751 260L751 266L710 266L710 260L668 260L668 245L626 245L626 263L584 263L584 263L543 263L543 245L501 245L501 233L459 233L459 233L417 233L417 230L376 230L376 251L334 251L334 269L292 269L292 230L250 230L250 233L209 233L209 269L167 269L167 230L125 230L125 239L83 239L83 242L42 242L42 266L0 266Z" fill="#c49e85"></path></svg>